# Created by Metasequoia

v -288.616211 -21.934000 0.000000
v -283.795807 -16.482500 0.000000
v -281.382904 -20.574400 0.566300
v -281.382904 -20.574400 -0.566300
v -290.956207 -27.484400 0.000000
v -285.119110 -26.427000 0.480300
v -285.119110 -26.427000 -0.480300
v 41.740299 -1.959200 2.265600
v 41.740299 -1.959200 -2.265600
v -32.792900 -3.202400 -2.265600
v -32.792900 -3.202400 2.265600
v 41.740299 9.180600 -2.265600
v 41.740299 9.180600 2.265600
v -32.792900 9.427600 2.265600
v -32.792900 9.427600 -2.265600
v -35.379101 -3.202400 2.265600
v -35.379101 -3.202400 -2.265600
v -35.379101 9.427600 -2.265600
v -35.379101 9.427600 2.265600
v -225.926300 -15.527600 -0.480300
v -226.511795 -10.821400 -0.566300
v -225.926300 -15.527600 0.480300
v -226.511795 -10.821400 0.566300
v -227.097397 -6.114900 0.000000
v -170.362198 -3.336300 -0.566300
v -169.955399 -8.066400 -0.480300
v -169.955399 -8.066400 0.480300
v -170.362198 -3.336300 0.566300
v -170.769104 1.393900 0.000000
v -38.564400 -1.345900 -0.480300
v -38.564400 3.406400 -0.566300
v -110.010300 1.677400 -0.566300
v -109.795502 -3.068700 -0.480300
v -38.564400 3.406400 0.566300
v -38.564400 -1.345900 0.480300
v -109.795502 -3.068700 0.480300
v -110.010300 1.677400 0.566300
v -38.564400 8.158600 0.000000
v -110.225197 6.423400 0.000000
v 41.740299 3.610700 -3.566900
v -32.792900 3.631000 -3.566900
v 41.740299 3.610700 3.566900
v -32.792900 3.631000 3.566900
v -35.379101 3.631000 -3.566900
v -35.379101 3.631000 3.566900
v -42.484100 -2.225600 1.099300
v -34.015800 -2.157500 1.099300
v -34.015800 -2.157500 -1.099300
v -42.484100 -2.225600 -1.099300
v -42.484100 8.697800 -0.723000
v -34.015800 8.765900 -0.723000
v -34.015800 8.765900 0.723000
v -42.484100 8.697800 0.723000
v -42.484100 3.542600 -1.295900
v -34.015800 3.610700 -1.295900
v -42.484100 3.542600 1.295900
v -34.015800 3.610700 1.295900
v -35.395100 -3.166100 -2.357800
v -35.395100 9.390300 -2.357800
v -35.395100 -3.166100 2.357800
v -35.395100 9.390300 2.357800
v -35.395100 3.654000 -3.638800
v -35.395100 3.654000 3.638800
v -293.527100 -29.939699 -2.357800
v -296.226013 -17.417900 -2.357800
v -293.527100 -29.939699 2.357800
v -296.226013 -17.417900 2.357800
v -294.876495 -23.678801 -3.638800
v -294.876495 -23.678801 3.638800
v -225.513504 -17.147699 -2.357800
v -227.510300 -4.494900 -2.357800
v -225.513504 -17.147699 2.357800
v -227.510300 -4.494900 2.357800
v -226.511795 -10.821400 -3.638800
v -226.511795 -10.821400 3.638800
v -169.668503 -9.703200 -2.357800
v -171.056000 3.030700 -2.357800
v -169.668503 -9.703200 2.357800
v -171.056000 3.030700 2.357800
v -170.362198 -3.336300 -3.638800
v -170.362198 -3.336300 3.638800
v -109.643997 -4.716800 -2.357800
v -110.376701 8.071600 -2.357800
v -109.643997 -4.716800 2.357800
v -110.376701 8.071600 2.357800
v -110.010300 1.677400 -3.638800
v -110.010300 1.677400 3.638800
v -93.235199 -4.707600 -2.701900
v -93.404900 8.935900 -2.702000
v -93.235199 -4.707600 2.702000
v -93.404900 8.935900 2.701900
v -93.320099 2.114100 -4.327100
v -93.320099 2.114100 4.327100
v -89.749298 -4.616400 -2.701900
v -89.717903 9.032400 -2.702000
v -89.749298 -4.616400 2.702000
v -89.717903 9.032400 2.701900
v -89.733597 2.208000 -4.327100
v -89.733597 2.208000 4.327100
# 99 vertices

vt 0.12500 0.47500
vt 0.20000 0.47500
vt 0.04425 0.37374
vt 0.05000 0.37500
vt 0.02500 0.45000
vt 0.02500 0.37500
vt 0.00731 0.60564
vt 0.98387 0.60564
vt 0.00731 0.50680
vt 0.98387 0.50680
vt 1.60789 0.73448
vt 1.60789 0.63489
vt 1.00759 0.63489
vt 1.00759 0.73448
vt 3.78060 0.73448
vt 3.78060 0.63489
vt 3.17114 0.63489
vt 3.17114 0.73448
vt 0.35000 0.27500
vt 0.35000 0.37500
vt 0.05000 0.27500
vt 0.35000 0.47500
vt 0.52500 0.37500
vt 0.52500 0.27500
vt 0.52500 0.47500
vt 0.97500 0.27500
vt 0.97500 0.37500
vt 0.72500 0.37500
vt 0.72500 0.27500
vt 0.97500 0.47500
vt 0.72500 0.47500
vt 0.00731 0.55622
vt 0.98387 0.55622
vt 0.00073 0.87385
vt 0.31447 0.87385
vt 0.25724 0.99634
vt 0.05796 0.99634
vt 0.05796 0.75137
vt 0.25724 0.75137
vt 4.50771 0.73448
vt 4.50771 0.63489
vt 0.24716 0.63489
vt 0.24716 0.73448
vt 2.38541 0.73448
vt 2.38541 0.63489
vt 0.35938 0.96875
vt 0.34375 0.96875
vt 0.34398 0.97095
vt 0.35964 0.97095
vt 0.35944 0.98217
vt 0.34391 0.98218
vt 0.34376 0.98072
vt 0.35927 0.98072
vt 0.35959 0.97696
vt 0.34398 0.97696
vt 0.35928 0.97436
vt 0.34372 0.97436
vt 0.96875 0.93750
vt 0.96875 0.99432
vt 0.96814 0.11536
vt 0.07009 0.11536
vt 0.07009 0.06194
vt 0.96814 0.06194
vt 0.96814 0.17179
vt 0.07009 0.17179
# 65 texture vertices

vn -0.08850 0.04899 0.99487
vn -0.05850 0.10293 0.99297
vn -0.03510 0.05309 0.99797
vn -0.08850 0.04899 -0.99487
vn -0.03510 0.05309 -0.99797
vn -0.05850 0.10293 -0.99297
vn 0.17825 -0.98399 0.00000
vn 0.17971 -0.98372 0.00000
vn 0.17971 -0.98372 0.00000
vn 0.01668 -0.99986 0.00000
vn 0.01668 -0.99986 0.00000
vn 0.00834 -0.99997 0.00000
vn 0.00834 -0.99997 0.00000
vn 0.00331 0.99999 0.00000
vn 0.00331 0.99999 0.00000
vn 0.00166 1.00000 0.00000
vn 0.00166 1.00000 0.00000
vn 0.00000 -1.00000 0.00000
vn 0.00000 -1.00000 0.00000
vn 0.00000 1.00000 0.00000
vn 0.00000 1.00000 0.00000
vn -0.08867 0.03738 -0.99536
vn -0.06348 0.02427 -0.99769
vn -0.06348 0.02427 0.99769
vn -0.08867 0.03738 0.99536
vn 0.00279 -0.01789 -0.99984
vn -0.00791 0.05069 -0.99868
vn 0.00279 -0.01789 0.99984
vn -0.00791 0.05068 0.99868
vn 0.15666 -0.98765 0.00000
vn 0.15666 -0.98765 0.00000
vn -0.01822 0.11740 0.99292
vn -0.01822 0.11740 -0.99292
vn -0.00555 0.05107 -0.99868
vn 0.00195 -0.01801 -0.99984
vn 0.00195 -0.01801 0.99984
vn -0.00555 0.05107 0.99868
vn 0.10750 -0.99421 0.00000
vn 0.10750 -0.99421 0.00000
vn -0.01270 0.11779 0.99296
vn -0.01270 0.11778 -0.99296
vn 0.00044 -0.01809 -0.99984
vn -0.00124 0.05129 -0.99868
vn -0.00277 0.05145 -0.99867
vn 0.00097 -0.01807 -0.99984
vn -0.00124 0.05128 0.99868
vn 0.00044 -0.01809 0.99984
vn 0.00097 -0.01807 0.99984
vn -0.00277 0.05145 0.99867
vn 0.02418 -0.99971 0.00000
vn 0.05351 -0.99857 0.00000
vn 0.05351 -0.99857 0.00000
vn -0.00286 0.11833 0.99297
vn -0.00632 0.11820 0.99297
vn -0.00287 0.11833 -0.99297
vn -0.00632 0.11820 -0.99297
vn 0.00012 -0.22514 -0.97433
vn -0.00000 -0.00005 -1.00000
vn 0.00093 0.01594 -0.99987
vn 0.00155 -0.18707 -0.98235
vn 0.00010 0.22708 -0.97388
vn 0.00036 0.21904 -0.97572
vn 1.00000 0.00000 0.00000
vn 0.00077 0.01584 0.99987
vn 0.00034 -0.00026 1.00000
vn 0.00012 -0.22514 0.97433
vn 0.00155 -0.18707 0.98235
vn 0.00005 0.21925 0.97567
vn 0.00075 0.22750 0.97378
vn 0.00000 0.01633 -0.99987
vn 0.00000 0.21904 -0.97572
vn 0.00000 -0.18707 -0.98235
vn 0.00000 0.01632 0.99987
vn 0.00000 -0.18707 0.98235
vn 0.00000 0.21904 0.97572
vn 0.00804 -0.99997 0.00000
vn 0.00804 -0.99997 0.00000
vn -0.00804 0.99997 0.00000
vn -0.00804 0.99997 0.00000
vn -0.00030 0.03792 -0.99928
vn -0.00031 0.03866 -0.99925
vn -0.00089 0.11045 -0.99388
vn -0.00089 0.11045 -0.99388
vn 0.00027 -0.03406 -0.99942
vn 0.00027 -0.03406 -0.99942
vn -0.00030 0.03792 0.99928
vn -0.00031 0.03866 0.99925
vn 0.00027 -0.03406 0.99942
vn -0.00089 0.11045 0.99388
vn -0.00089 0.11045 0.99388
vn -1.00000 0.00000 0.00000
vn 1.00000 -0.00230 0.00000
vn 1.00000 -0.00230 0.00000
vn 1.00000 -0.00230 0.00000
vn -0.99992 -0.01243 0.00000
vn -0.99992 -0.01244 0.00000
vn -0.99992 -0.01243 0.00000
vn 1.00000 -0.00230 0.00000
vn 1.00000 -0.00230 0.00000
vn -0.99992 -0.01244 0.00000
vn -0.99992 -0.01244 0.00000
vn -0.99992 -0.01244 0.00000
vn -0.00054 0.00329 -0.99999
vn -0.00061 0.00324 -0.99999
vn 0.03626 -0.19281 -0.98057
vn 0.03110 -0.19365 -0.98058
vn 0.03110 -0.19365 0.98058
vn 0.03626 -0.19281 0.98057
vn -0.00061 0.00324 0.99999
vn -0.00054 0.00328 0.99999
vn 0.15855 -0.98735 0.00000
vn 0.18484 -0.98277 0.00000
vn 0.18484 -0.98277 0.00000
vn 0.15854 -0.98735 0.00000
vn -0.03108 0.19364 -0.98058
vn -0.03626 0.19281 -0.98057
vn -0.15854 0.98735 0.00000
vn -0.18482 0.98277 0.00000
vn -0.18482 0.98277 0.00000
vn -0.15854 0.98735 0.00000
vn -0.03626 0.19281 0.98057
vn -0.03108 0.19364 0.98058
vn -0.00033 0.00308 -1.00000
vn 0.02108 -0.19499 -0.98058
vn 0.02108 -0.19499 0.98058
vn -0.00033 0.00308 1.00000
vn 0.10750 -0.99421 0.00000
vn 0.10749 -0.99421 0.00000
vn -0.02109 0.19499 -0.98058
vn -0.10750 0.99421 0.00000
vn -0.10749 0.99421 0.00000
vn -0.02108 0.19499 0.98058
vn 0.00024 0.00382 -0.99999
vn 0.01066 -0.19550 -0.98065
vn 0.01015 -0.19587 0.98058
vn -0.00002 0.00398 0.99999
vn 0.05186 -0.99865 0.00000
vn 0.05186 -0.99865 0.00000
vn -0.00988 0.19588 -0.98058
vn -0.05021 0.99874 0.00000
vn -0.05021 0.99874 0.00000
vn -0.00988 0.19588 0.98058
vn -0.97755 -0.21070 0.00000
vn -0.97755 -0.21069 0.00000
vn -0.97755 -0.21069 0.00000
vn -0.97755 -0.21071 0.00000
vn -0.97755 -0.21071 -0.00000
vn -0.00054 0.02042 0.99979
vn 0.00485 -0.18524 0.98268
vn 0.02088 -0.99978 0.00000
vn 0.02088 -0.99978 0.00000
vn -0.00564 0.21673 0.97622
vn -0.01758 0.99985 0.00000
vn -0.00102 0.02008 -0.99980
vn -0.00564 0.21673 -0.97622
vn 0.00386 -0.18460 -0.98281
vn -0.00011 0.00420 -0.99999
vn 0.00005 -0.00204 -1.00000
vn 0.00606 -0.23168 -0.97277
vn 0.00606 -0.23168 -0.97277
vn 0.00606 -0.23166 0.97278
vn 0.00606 -0.23166 0.97278
vn 0.00005 -0.00202 1.00000
vn -0.00011 0.00420 0.99999
vn -0.00606 0.23166 -0.97278
vn -0.00606 0.23166 -0.97278
vn -0.02616 0.99966 0.00000
vn -0.02616 0.99966 0.00000
vn -0.00606 0.23168 0.97277
vn -0.00606 0.23168 0.97277
vn 0.02615 -0.99966 0.00000
vn 0.02615 -0.99966 0.00000
# 172 normal vertices

g base
s 1
f 3/3/3 2/2/2 1/1/1
f 2/2/6 4/4/5 1/1/4
f 7/6/9 6/6/8 5/5/7
f 10/8/12 9/7/11 8/7/10
f 11/8/13 10/8/12 8/7/10
f 14/10/16 13/9/15 12/9/14
f 15/10/17 14/10/16 12/9/14
f 10/13/12 11/12/13 16/11/18
f 17/14/19 10/13/12 16/11/18
f 14/17/16 15/16/17 18/15/20
f 19/18/21 14/17/16 18/15/20
f 7/6/23 5/5/22 1/1/4
f 4/4/5 7/6/23 1/1/4
f 6/6/24 3/3/3 1/1/1
f 5/5/25 6/6/24 1/1/1
f 4/4/5 21/20/27 20/19/26
f 7/21/23 4/4/5 20/19/26
f 3/3/3 6/21/24 22/19/28
f 23/20/29 3/3/3 22/19/28
f 6/21/8 7/21/9 20/19/30
f 22/19/31 6/21/8 20/19/30
f 3/3/3 23/20/29 24/22/32
f 2/2/2 3/3/3 24/22/32
f 4/4/5 2/2/6 24/22/33
f 21/20/27 4/4/5 24/22/33
f 20/19/26 21/20/27 25/23/34
f 26/24/35 20/19/26 25/23/34
f 23/20/29 22/19/28 27/24/36
f 28/23/37 23/20/29 27/24/36
f 22/19/31 20/19/30 26/24/38
f 27/24/39 22/19/31 26/24/38
f 24/22/32 23/20/29 28/23/37
f 29/25/40 24/22/32 28/23/37
f 21/20/27 24/22/33 29/25/41
f 25/23/34 21/20/27 29/25/41
f 32/28/44 31/27/43 30/26/42
f 33/29/45 32/28/44 30/26/42
f 26/24/35 25/23/34 32/28/44
f 33/29/45 26/24/35 32/28/44
f 36/29/48 35/26/47 34/27/46
f 37/28/49 36/29/48 34/27/46
f 28/23/37 27/24/36 36/29/48
f 37/28/49 28/23/37 36/29/48
f 33/29/51 30/26/50 35/26/50
f 36/29/52 33/29/51 35/26/50
f 27/24/39 26/24/38 33/29/51
f 36/29/52 27/24/39 33/29/51
f 37/28/49 34/27/46 38/30/53
f 39/31/54 37/28/49 38/30/53
f 29/25/40 28/23/37 37/28/49
f 39/31/54 29/25/40 37/28/49
f 39/31/56 38/30/55 31/27/43
f 32/28/44 39/31/56 31/27/43
f 25/23/34 29/25/41 39/31/56
f 32/28/44 25/23/34 39/31/56
f 41/33/59 40/32/58 9/7/57
f 10/8/60 41/33/59 9/7/57
f 41/33/59 15/10/62 12/9/61
f 40/32/58 41/33/59 12/9/61
f 9/36/63 40/35/63 42/34/63
f 8/37/63 9/36/63 42/34/63
f 40/35/63 12/39/63 13/38/63
f 42/34/63 40/35/63 13/38/63
f 8/7/66 42/32/65 43/33/64
f 11/8/67 8/7/66 43/33/64
f 42/32/65 13/9/69 14/10/68
f 43/33/64 42/32/65 14/10/68
f 15/16/62 41/41/59 44/40/70
f 18/15/71 15/16/62 44/40/70
f 41/42/59 10/13/60 17/14/72
f 44/43/70 41/42/59 17/14/72
f 11/12/67 43/45/64 45/44/73
f 16/11/74 11/12/67 45/44/73
f 43/45/64 14/17/68 19/18/75
f 45/44/73 43/45/64 19/18/75
f 48/48/76 47/47/77 46/46/76
f 49/49/77 48/48/76 46/46/76
f 52/52/78 51/51/79 50/50/78
f 53/53/79 52/52/78 50/50/78
f 51/51/82 55/55/81 54/54/80
f 50/50/83 51/51/82 54/54/80
f 55/55/81 48/48/85 49/49/84
f 54/54/80 55/55/81 49/49/84
f 47/47/88 57/57/87 56/56/86
f 46/46/88 47/47/88 56/56/86
f 57/57/87 52/52/90 53/53/89
f 56/56/86 57/57/87 53/53/89
f 53/53/91 50/50/91 54/54/91
f 49/49/91 53/53/91 54/54/91
f 56/56/91 53/53/91 49/49/91
f 46/46/91 56/56/91 49/49/91
f 95/58/94 97/58/93 99/58/92
f 89/59/97 92/59/96 91/59/95
f 99/58/92 96/58/99 98/58/98
f 95/58/94 99/58/92 98/58/98
f 94/58/99 98/58/98 96/58/99
f 90/59/101 92/59/96 88/59/100
f 92/59/96 90/59/101 93/59/102
f 91/59/95 92/59/96 93/59/102
f 64/62/105 68/61/104 74/60/103
f 70/63/106 64/62/105 74/60/103
f 69/61/109 66/62/108 72/63/107
f 75/60/110 69/61/109 72/63/107
f 66/62/113 64/62/112 70/63/111
f 72/63/114 66/62/113 70/63/111
f 68/61/104 65/65/116 71/64/115
f 74/60/103 68/61/104 71/64/115
f 65/65/119 67/65/118 73/64/117
f 71/64/120 65/65/119 73/64/117
f 67/65/121 69/61/109 75/60/110
f 73/64/122 67/65/121 75/60/110
f 70/63/106 74/60/103 80/60/123
f 76/63/124 70/63/106 80/60/123
f 75/60/110 72/63/107 78/63/125
f 81/60/126 75/60/110 78/63/125
f 72/63/114 70/63/111 76/63/127
f 78/63/128 72/63/114 76/63/127
f 74/60/103 71/64/115 77/64/129
f 80/60/123 74/60/103 77/64/129
f 71/64/120 73/64/117 79/64/130
f 77/64/131 71/64/120 79/64/130
f 73/64/122 75/60/110 81/60/126
f 79/64/132 73/64/122 81/60/126
f 76/63/124 80/60/123 86/60/133
f 82/63/134 76/63/124 86/60/133
f 81/60/126 78/63/125 84/63/135
f 87/60/136 81/60/126 84/63/135
f 78/63/128 76/63/127 82/63/137
f 84/63/138 78/63/128 82/63/137
f 80/60/123 77/64/129 83/64/139
f 86/60/133 80/60/123 83/64/139
f 77/64/131 79/64/130 85/64/140
f 83/64/141 77/64/131 85/64/140
f 79/64/132 81/60/126 87/60/136
f 85/64/142 79/64/132 87/60/136
f 66/62/144 69/61/143 68/61/143
f 64/62/145 66/62/144 68/61/143
f 69/61/143 67/65/147 65/65/146
f 68/61/143 69/61/143 65/65/146
f 60/63/149 63/60/148 87/60/136
f 84/63/135 60/63/149 87/60/136
f 58/63/151 60/63/150 84/63/138
f 82/63/137 58/63/151 84/63/138
f 61/64/152 85/64/142 87/60/136
f 63/60/148 61/64/152 87/60/136
f 59/64/153 83/64/141 85/64/140
f 61/64/153 59/64/153 85/64/140
f 59/64/155 62/60/154 86/60/133
f 83/64/139 59/64/155 86/60/133
f 62/60/154 58/63/156 82/63/134
f 86/60/133 62/60/154 82/63/134
f 61/64/63 63/60/63 62/60/63
f 59/64/63 61/64/63 62/60/63
f 63/60/63 60/63/63 58/63/63
f 62/60/63 63/60/63 58/63/63
f 88/59/159 92/59/158 98/58/157
f 94/58/160 88/59/159 98/58/157
f 93/59/163 90/59/162 96/58/161
f 99/58/164 93/59/163 96/58/161
f 92/59/158 89/59/166 95/58/165
f 98/58/157 92/59/158 95/58/165
f 89/59/167 91/59/168 97/58/167
f 95/58/168 89/59/167 97/58/167
f 91/59/169 93/59/163 99/58/164
f 97/58/170 91/59/169 99/58/164
f 96/58/171 90/59/172 88/59/171
f 94/58/172 96/58/171 88/59/171
# 167 elements

